<svg xmlns="http://www.w3.org/2000/svg" viewBox="0 0 1200 320" role="img" aria-label="Pythinker Code  AI coding agent for your terminal">
  <defs>
    <linearGradient id="bg" x1="0%" y1="0%" x2="100%" y2="100%">
      <stop offset="0%" stop-color="#152238"/>
      <stop offset="55%" stop-color="#0f172a"/>
      <stop offset="100%" stop-color="#0a101c"/>
    </linearGradient>
    <radialGradient id="glow" cx="18%" cy="42%" r="38%">
      <stop offset="0%" stop-color="#1783ff" stop-opacity="0.22"/>
      <stop offset="100%" stop-color="#1783ff" stop-opacity="0"/>
    </radialGradient>
    <radialGradient id="warm" cx="82%" cy="78%" r="42%">
      <stop offset="0%" stop-color="#EE9983" stop-opacity="0.14"/>
      <stop offset="100%" stop-color="#EE9983" stop-opacity="0"/>
    </radialGradient>
    <filter id="softShadow" x="-20%" y="-20%" width="140%" height="140%">
      <feDropShadow dx="0" dy="12" stdDeviation="18" flood-color="#000" flood-opacity="0.35"/>
    </filter>
    <style>
      @keyframes pulse {
        0%, 100% { opacity: 0.55; }
        50% { opacity: 1; }
      }
      .grid-dot { fill: #ffffff; opacity: 0.04; }
      .accent-line { animation: pulse 4s ease-in-out infinite; }
    </style>
  </defs>

  <rect width="1200" height="320" fill="url(#bg)"/>
  <rect width="1200" height="320" fill="url(#glow)"/>
  <rect width="1200" height="320" fill="url(#warm)"/>

  <!-- subtle grid -->
  <g>
    <circle class="grid-dot" cx="80" cy="40" r="1.2"/>
    <circle class="grid-dot" cx="160" cy="40" r="1.2"/>
    <circle class="grid-dot" cx="240" cy="40" r="1.2"/>
    <circle class="grid-dot" cx="320" cy="40" r="1.2"/>
    <circle class="grid-dot" cx="400" cy="40" r="1.2"/>
    <circle class="grid-dot" cx="480" cy="40" r="1.2"/>
    <circle class="grid-dot" cx="560" cy="40" r="1.2"/>
    <circle class="grid-dot" cx="640" cy="40" r="1.2"/>
    <circle class="grid-dot" cx="720" cy="40" r="1.2"/>
    <circle class="grid-dot" cx="800" cy="40" r="1.2"/>
    <circle class="grid-dot" cx="880" cy="40" r="1.2"/>
    <circle class="grid-dot" cx="960" cy="40" r="1.2"/>
    <circle class="grid-dot" cx="1040" cy="40" r="1.2"/>
    <circle class="grid-dot" cx="1120" cy="40" r="1.2"/>
    <circle class="grid-dot" cx="80" cy="120" r="1.2"/>
    <circle class="grid-dot" cx="160" cy="120" r="1.2"/>
    <circle class="grid-dot" cx="240" cy="120" r="1.2"/>
    <circle class="grid-dot" cx="320" cy="120" r="1.2"/>
    <circle class="grid-dot" cx="400" cy="120" r="1.2"/>
    <circle class="grid-dot" cx="480" cy="120" r="1.2"/>
    <circle class="grid-dot" cx="560" cy="120" r="1.2"/>
    <circle class="grid-dot" cx="640" cy="120" r="1.2"/>
    <circle class="grid-dot" cx="720" cy="120" r="1.2"/>
    <circle class="grid-dot" cx="800" cy="120" r="1.2"/>
    <circle class="grid-dot" cx="880" cy="120" r="1.2"/>
    <circle class="grid-dot" cx="960" cy="120" r="1.2"/>
    <circle class="grid-dot" cx="1040" cy="120" r="1.2"/>
    <circle class="grid-dot" cx="1120" cy="120" r="1.2"/>
    <circle class="grid-dot" cx="80" cy="200" r="1.2"/>
    <circle class="grid-dot" cx="160" cy="200" r="1.2"/>
    <circle class="grid-dot" cx="240" cy="200" r="1.2"/>
    <circle class="grid-dot" cx="320" cy="200" r="1.2"/>
    <circle class="grid-dot" cx="400" cy="200" r="1.2"/>
    <circle class="grid-dot" cx="480" cy="200" r="1.2"/>
    <circle class="grid-dot" cx="560" cy="200" r="1.2"/>
    <circle class="grid-dot" cx="640" cy="200" r="1.2"/>
    <circle class="grid-dot" cx="720" cy="200" r="1.2"/>
    <circle class="grid-dot" cx="800" cy="200" r="1.2"/>
    <circle class="grid-dot" cx="880" cy="200" r="1.2"/>
    <circle class="grid-dot" cx="960" cy="200" r="1.2"/>
    <circle class="grid-dot" cx="1040" cy="200" r="1.2"/>
    <circle class="grid-dot" cx="1120" cy="200" r="1.2"/>
    <circle class="grid-dot" cx="80" cy="280" r="1.2"/>
    <circle class="grid-dot" cx="160" cy="280" r="1.2"/>
    <circle class="grid-dot" cx="240" cy="280" r="1.2"/>
    <circle class="grid-dot" cx="320" cy="280" r="1.2"/>
    <circle class="grid-dot" cx="400" cy="280" r="1.2"/>
    <circle class="grid-dot" cx="480" cy="280" r="1.2"/>
    <circle class="grid-dot" cx="560" cy="280" r="1.2"/>
    <circle class="grid-dot" cx="640" cy="280" r="1.2"/>
    <circle class="grid-dot" cx="720" cy="280" r="1.2"/>
    <circle class="grid-dot" cx="800" cy="280" r="1.2"/>
    <circle class="grid-dot" cx="880" cy="280" r="1.2"/>
    <circle class="grid-dot" cx="960" cy="280" r="1.2"/>
    <circle class="grid-dot" cx="1040" cy="280" r="1.2"/>
    <circle class="grid-dot" cx="1120" cy="280" r="1.2"/>
  </g>

  <!-- wordmark -->
  <g transform="translate(96, 88)">
    <text font-family="ui-sans-serif, system-ui, -apple-system, BlinkMacSystemFont, 'Segoe UI', sans-serif" font-size="22" font-weight="600" letter-spacing="0.14em" fill="#AFE3F1">PYTHINKER CODE</text>
    <text y="62" font-family="ui-sans-serif, system-ui, -apple-system, BlinkMacSystemFont, 'Segoe UI', sans-serif" font-size="54" font-weight="700" letter-spacing="-0.02em" fill="#F8FAFC">Next-gen agents</text>
    <text y="118" font-family="ui-sans-serif, system-ui, -apple-system, BlinkMacSystemFont, 'Segoe UI', sans-serif" font-size="54" font-weight="700" letter-spacing="-0.02em" fill="#F8FAFC">in your terminal</text>
    <rect class="accent-line" y="148" width="120" height="3" rx="1.5" fill="#EE9983"/>
    <text y="188" font-family="ui-monospace, 'JetBrains Mono', ui-monospace, monospace" font-size="17" fill="#94A3B8">Reads code ù edits files ù runs tools ù ships results</text>
  </g>

  <!-- corner badge -->
  <g transform="translate(1010, 36)">
    <rect width="130" height="36" rx="8" fill="#1783ff" fill-opacity="0.12" stroke="#1783ff" stroke-opacity="0.35"/>
    <text x="65" y="23" text-anchor="middle" font-family="ui-monospace, monospace" font-size="13" font-weight="600" fill="#58A6FF">Open Source</text>
  </g>
</svg>
